<?xml version="1.0" standalone="no"?>
<!DOCTYPE svg PUBLIC "-//W3C//DTD SVG 20010904//EN"
 "http://www.w3.org/TR/2001/REC-SVG-20010904/DTD/svg10.dtd">
<svg version="1.0" xmlns="http://www.w3.org/2000/svg"
 width="486.000000pt" height="600.000000pt" viewBox="0 0 486.000000 600.000000"
 preserveAspectRatio="xMidYMid meet">

<g transform="translate(0.000000,600.000000) scale(0.100000,-0.100000)"
fill="#000000" stroke="none">
<path d="M3597 5805 c-23 -405 -134 -887 -299 -1294 -359 -888 -1031 -1700
-1923 -2323 -44 -31 -136 -90 -205 -133 -74 -45 -113 -74 -95 -70 118 26 420
107 442 119 46 24 282 217 445 364 584 529 1047 1150 1321 1772 213 484 312
917 324 1405 6 264 1 348 -10 160z"/>
<path d="M3732 5465 c-83 -736 -372 -1431 -879 -2110 -325 -436 -734 -849
-1181 -1193 -52 -40 -92 -72 -89 -72 23 0 379 138 403 156 58 43 352 334 468
463 525 581 918 1208 1120 1791 120 344 183 697 174 980 l-3 105 -13 -120z"/>
<path d="M3821 4964 c0 -11 3 -14 6 -6 3 7 2 16 -1 19 -3 4 -6 -2 -5 -13z"/>
<path d="M3801 4884 c-19 -89 -133 -424 -186 -549 -248 -585 -638 -1170 -1132
-1701 -129 -138 -313 -315 -423 -407 -43 -35 -38 -34 109 35 154 73 155 74
274 188 601 577 1061 1325 1282 2085 48 166 98 381 92 398 -1 5 -9 -16 -16
-49z"/>
<path d="M3901 4664 c0 -11 3 -14 6 -6 3 7 2 16 -1 19 -3 4 -6 -2 -5 -13z"/>
<path d="M3856 4522 c-226 -692 -682 -1403 -1320 -2060 l-110 -113 110 51
c103 48 115 57 207 153 414 430 865 1174 1067 1762 41 119 94 314 88 321 -2 2
-21 -49 -42 -114z"/>
<path d="M3956 4388 c-40 -111 -160 -380 -242 -537 -221 -427 -500 -833 -853
-1244 -50 -58 -91 -109 -91 -111 0 -15 140 72 174 108 115 122 460 614 621
886 164 276 328 632 391 848 28 98 28 130 0 50z"/>
<path d="M3941 4061 c-101 -277 -481 -894 -802 -1303 -38 -48 -69 -90 -69 -92
0 -3 27 11 60 31 49 29 75 56 141 146 295 399 586 916 684 1215 24 74 13 76
-14 3z"/>
<path d="M1034 1821 c-128 -31 -197 -148 -160 -272 21 -71 61 -122 170 -214
100 -86 144 -136 152 -174 3 -14 7 -34 9 -44 5 -28 -15 -90 -38 -115 -34 -37
-77 -55 -133 -55 -95 0 -174 63 -174 139 0 19 -5 34 -10 34 -7 0 -10 -33 -8
-92 l3 -91 40 -15 c24 -9 75 -15 126 -16 74 0 93 4 142 28 86 42 138 125 137
220 -1 98 -48 168 -191 286 -59 49 -117 103 -129 120 -29 41 -36 105 -17 151
31 76 158 101 243 49 26 -17 37 -32 45 -67 16 -60 29 -38 29 48 l0 67 -63 11
c-70 12 -126 13 -173 2z"/>
<path d="M1672 1498 c-43 -112 -105 -270 -137 -351 -32 -82 -68 -161 -80 -175
-12 -14 -40 -31 -61 -38 -35 -11 -28 -12 81 -13 112 0 118 1 93 15 -16 8 -28
22 -27 32 0 9 17 64 38 122 l38 105 128 0 128 0 48 -115 c29 -69 46 -124 43
-137 -4 -23 -3 -23 108 -23 77 0 108 3 98 10 -8 5 -24 10 -36 10 -29 0 -69 46
-99 115 -15 33 -76 179 -135 325 -126 309 -131 320 -141 320 -4 0 -43 -91 -87
-202z m83 15 c31 -80 95 -256 95 -263 0 -12 -210 -14 -210 -2 0 16 95 282 101
282 4 0 10 -8 14 -17z"/>
<path d="M3723 1682 c-144 -1 -233 -6 -233 -12 0 -6 13 -10 29 -10 55 0 56 -5
56 -349 0 -174 -3 -328 -8 -343 -5 -21 -14 -28 -32 -28 -14 0 -25 -4 -25 -10
0 -6 50 -10 131 -10 84 0 128 4 124 10 -3 6 -19 10 -34 10 -50 0 -55 18 -59
196 l-4 164 91 0 c105 0 126 -8 145 -53 l13 -32 7 60 c4 33 10 68 12 78 6 21
4 21 -32 2 -20 -10 -60 -15 -132 -15 l-103 0 3 148 3 147 105 -3 c112 -4 150
-17 150 -52 0 -11 4 -20 9 -20 7 0 26 122 19 124 -2 1 -108 0 -235 -2z"/>
<path d="M2240 1672 c0 -6 15 -12 32 -14 57 -5 59 -17 56 -363 -3 -326 -7
-355 -48 -355 -11 0 -20 -4 -20 -10 0 -6 50 -10 131 -10 84 0 128 4 124 10 -3
6 -19 10 -35 10 -50 0 -60 28 -60 172 l0 128 73 0 73 0 93 -119 c96 -125 146
-176 188 -192 33 -12 186 -12 178 1 -3 6 -20 10 -36 10 -42 0 -76 21 -130 77
-39 40 -154 178 -197 234 -10 13 -5 23 28 59 55 60 80 115 80 179 0 58 -10 82
-49 124 -48 53 -79 59 -288 65 -132 3 -193 1 -193 -6z m367 -58 c92 -67 99
-253 11 -317 -21 -16 -42 -20 -93 -19 -113 2 -105 -12 -105 181 0 92 3 171 8
175 4 4 39 6 79 4 53 -2 80 -9 100 -24z"/>
<path d="M3060 1671 c0 -5 13 -11 29 -14 18 -4 31 -14 35 -29 8 -30 6 -614 -3
-653 -4 -19 -13 -31 -26 -33 -11 -2 -24 -8 -30 -13 -5 -5 44 -9 124 -9 85 0
130 4 126 10 -3 6 -19 10 -35 10 -19 0 -33 7 -40 19 -6 13 -10 141 -10 348 0
342 1 353 42 353 10 0 18 5 18 10 0 6 -45 10 -115 10 -63 0 -115 -4 -115 -9z"/>
<path d="M4583 791 c-24 -11 -48 -32 -57 -50 -18 -35 -21 -112 -5 -144 6 -12
56 -65 110 -118 98 -95 99 -96 99 -143 0 -26 -5 -56 -10 -67 -17 -32 -68 -52
-117 -46 -53 6 -88 35 -101 86 -9 34 -10 32 -11 -31 l-1 -66 36 -12 c45 -15
140 -8 182 14 48 25 75 71 80 135 3 49 0 62 -25 98 -15 23 -63 71 -105 107
-43 36 -82 75 -88 85 -19 36 -12 90 16 118 23 22 32 25 80 21 58 -5 90 -26 97
-62 2 -13 6 -2 11 27 5 26 6 50 3 53 -3 3 -38 8 -79 10 -59 4 -81 1 -115 -15z"/>
<path d="M109 786 c14 -8 28 -22 32 -32 9 -23 9 -457 0 -499 -3 -17 -16 -35
-31 -42 -22 -11 -11 -13 80 -12 95 0 102 1 70 12 -33 11 -35 15 -42 67 -8 72
-10 404 -2 453 5 27 14 42 33 52 24 13 19 14 -69 14 -85 0 -93 -1 -71 -13z"/>
<path d="M467 713 c-4 -3 -7 -115 -7 -249 l0 -242 -27 -10 c-23 -9 -12 -10 57
-11 80 0 83 1 54 13 -31 14 -31 14 -37 112 -4 55 -7 139 -7 188 l0 90 198
-202 c108 -112 203 -203 209 -202 10 0 13 59 15 242 l3 242 25 13 c22 11 15
13 -60 12 -68 -1 -79 -3 -54 -10 41 -12 44 -29 44 -235 l0 -163 -201 210
c-111 115 -202 209 -204 209 -1 0 -5 -3 -8 -7z"/>
<path d="M2373 701 c-54 -25 -79 -72 -68 -127 7 -39 25 -60 159 -179 68 -61
75 -98 27 -146 -52 -52 -156 -33 -185 34 l-14 32 -1 -52 c-1 -49 1 -53 27 -60
15 -5 57 -8 93 -7 84 1 130 26 154 86 31 80 -4 144 -127 230 -88 62 -108 109
-63 153 19 19 35 25 70 25 56 0 82 -13 98 -48 11 -27 11 -26 15 17 2 23 1 45
-1 48 -3 2 -36 6 -73 9 -55 4 -77 1 -111 -15z"/>
<path d="M2676 689 c-10 -54 -7 -60 19 -34 21 22 33 25 95 25 l70 0 0 -209 c0
-215 -6 -256 -37 -264 -10 -3 25 -5 77 -5 78 0 89 2 64 10 -41 13 -44 30 -44
276 l0 192 59 0 c69 0 111 -13 111 -35 0 -8 5 -15 10 -15 6 0 10 18 10 40 l0
40 -199 0 c-110 0 -206 2 -214 6 -10 3 -16 -4 -21 -27z"/>
<path d="M1101 699 c36 -13 39 -35 39 -255 0 -189 -6 -229 -37 -237 -20 -5
186 -11 256 -7 99 5 170 48 216 131 26 47 30 64 30 130 0 67 -4 81 -30 125
-37 58 -99 100 -174 114 -71 13 -337 12 -300 -1z m286 -34 c123 -52 179 -174
142 -310 -15 -53 -74 -108 -133 -125 -62 -17 -165 -8 -183 16 -10 13 -13 72
-13 226 l0 208 75 0 c45 0 90 -6 112 -15z"/>
<path d="M1707 696 l31 -14 4 -179 c4 -195 9 -217 68 -267 85 -71 248 -54 307
33 32 47 43 116 43 271 0 132 1 140 22 154 21 15 18 16 -57 15 -65 0 -75 -2
-53 -10 35 -13 42 -57 36 -233 -4 -107 -8 -140 -24 -171 -28 -53 -75 -77 -142
-72 -58 4 -95 30 -118 83 -17 41 -28 212 -20 306 6 64 11 77 29 86 17 8 2 11
-68 11 -85 0 -88 -1 -58 -13z"/>
<path d="M3220 697 l25 -13 3 -224 c3 -219 2 -225 -19 -242 -21 -17 -18 -18
67 -18 84 1 87 1 57 15 -29 12 -32 18 -38 77 -13 120 -3 137 70 124 27 -5 47
-23 101 -92 81 -105 110 -124 184 -123 l55 0 -40 15 c-48 18 -70 38 -151 138
l-64 78 31 35 c58 67 67 143 22 193 -36 40 -79 49 -218 50 -95 0 -107 -2 -85
-13z m223 -37 c52 -41 61 -148 16 -196 -18 -19 -33 -24 -70 -24 -80 0 -79 -2
-79 126 l0 114 54 0 c38 0 60 -6 79 -20z"/>
<path d="M3750 697 l25 -13 3 -224 c3 -219 2 -225 -19 -242 -21 -17 -18 -18
67 -18 86 1 88 1 57 15 l-33 14 0 229 c0 228 0 229 23 240 18 9 6 11 -63 11
-75 1 -82 -1 -60 -12z"/>
<path d="M4060 697 l25 -13 3 -209 c1 -116 0 -220 -3 -233 -3 -13 -16 -27 -28
-32 -14 -6 30 -9 130 -9 l151 -1 7 41 c4 22 4 43 1 46 -3 4 -6 0 -6 -9 0 -34
-35 -49 -106 -46 l-69 3 -3 114 c-2 101 -1 113 13 107 9 -3 39 -6 67 -6 41 0
51 -3 55 -20 10 -36 23 -21 23 25 0 42 -2 45 -19 35 -11 -5 -47 -10 -80 -10
l-61 0 0 100 0 100 49 0 c60 0 101 -14 101 -35 0 -33 18 -12 22 25 l4 40 -151
0 c-127 0 -146 -2 -125 -13z"/>
</g>
</svg>
