<?xml version="1.0" encoding="UTF-8"?>
<svg xmlns="http://www.w3.org/2000/svg" xmlns:xlink="http://www.w3.org/1999/xlink" width="130.55pt" height="112.12pt" viewBox="0 0 130.55 112.12" version="1.1">
<defs>
<clipPath id="clip1">
  <path d="M 0 20 L 130.550781 20 L 130.550781 112.121094 L 0 112.121094 Z M 0 20 "/>
</clipPath>
</defs>
<g id="surface1">
<path style=" stroke:none;fill-rule:nonzero;fill:rgb(21.960449%,75.68512%,80.39093%);fill-opacity:1;" d="M 102.742188 58.96875 C 102.25 64.171875 97.449219 70.273438 92.820313 74.765625 C 84.398438 82.9375 76.164063 91.304688 67.835938 99.578125 C 65.363281 102.035156 64.863281 102.027344 62.351563 99.523438 C 53.003906 90.195313 43.605469 80.917969 34.351563 71.496094 C 23.527344 60.480469 26.015625 43.820313 39.53125 37.386719 C 46.929688 33.867188 54.175781 34.765625 60.828125 39.617188 C 62.3125 40.703125 63.648438 41.988281 64.761719 42.9375 C 68.210938 40.785156 71.253906 38.128906 74.796875 36.804688 C 86.433594 32.460938 97.796875 38.871094 101.929688 50.597656 C 103.15625 54.082031 103.109375 55.078125 102.742188 58.96875 "/>
<path style=" stroke:none;fill-rule:nonzero;fill:rgb(100%,100%,100%);fill-opacity:1;" d="M 59.886719 61.742188 L 59.886719 53.136719 C 59.886719 52.507813 60.417969 51.992188 61.066406 51.992188 L 69.328125 51.992188 C 69.976563 51.992188 70.507813 52.507813 70.507813 53.136719 L 70.507813 61.742188 L 79.355469 61.742188 C 80.003906 61.742188 80.535156 62.257813 80.535156 62.890625 L 80.535156 70.921875 C 80.535156 71.550781 80.003906 72.066406 79.355469 72.066406 L 70.507813 72.066406 L 70.507813 80.671875 C 70.507813 81.304688 69.976563 81.820313 69.328125 81.820313 L 61.066406 81.820313 C 60.417969 81.820313 59.886719 81.304688 59.886719 80.671875 L 59.886719 72.066406 L 51.039063 72.066406 C 50.390625 72.066406 49.859375 71.550781 49.859375 70.921875 L 49.859375 62.890625 C 49.859375 62.257813 50.390625 61.742188 51.039063 61.742188 L 59.886719 61.742188 "/>
<path style=" stroke:none;fill-rule:nonzero;fill:rgb(46.273804%,47.058105%,48.234558%);fill-opacity:1;" d="M 43.6875 11.542969 C 44.617188 7.230469 48.605469 4.132813 53.246094 4.074219 C 60.144531 3.992188 70.136719 3.992188 77.035156 4.070313 C 82.761719 4.136719 86.976563 8.203125 87.246094 13.765625 C 87.277344 14.441406 87.277344 15.976563 87.273438 17.476563 L 91.359375 17.476563 C 91.363281 16.019531 91.363281 14.5625 91.347656 13.910156 C 91.183594 6.40625 85.289063 0.246094 77.871094 0.105469 C 70.542969 -0.0351563 60.113281 -0.0234375 52.785156 0.109375 C 45.96875 0.234375 40.238281 5.433594 39.429688 12.019531 C 39.292969 13.148438 39.234375 15.402344 39.1875 17.476563 L 43.285156 17.476563 C 43.34375 15.273438 43.417969 12.789063 43.6875 11.542969 "/>
<g clip-path="url(#clip1)" clip-rule="nonzero">
<path style=" stroke:none;fill-rule:nonzero;fill:rgb(46.273804%,47.058105%,48.234558%);fill-opacity:1;" d="M 120.351563 80.367188 C 110.417969 80.386719 100.484375 80.378906 90.550781 80.375 C 89.144531 81.71875 87.746094 83.066406 86.347656 84.414063 C 98.347656 84.414063 110.234375 84.414063 122.234375 84.414063 C 122.269531 84.890625 122.347656 85.40625 122.347656 85.921875 C 122.355469 91.296875 122.367188 96.675781 122.34375 102.050781 C 122.328125 105.710938 120.164063 107.894531 116.414063 108.101563 C 115.667969 108.144531 114.921875 108.128906 114.175781 108.128906 C 81.308594 108.128906 48.441406 108.128906 15.574219 108.132813 C 13.628906 108.132813 11.550781 108.226563 10.21875 106.644531 C 9.289063 105.539063 8.339844 104.058594 8.292969 102.71875 C 8.082031 96.804688 8.199219 90.878906 8.203125 84.957031 C 8.203125 84.792969 8.300781 84.628906 8.363281 84.425781 C 20.117188 84.425781 31.855469 84.425781 43.710938 84.425781 C 42.328125 83.082031 40.945313 81.730469 39.5625 80.378906 C 30.050781 80.382813 20.542969 80.382813 11.03125 80.378906 C 6.300781 80.378906 4.097656 78.226563 4.09375 73.609375 C 4.089844 59.53125 4.089844 45.457031 4.097656 31.378906 C 4.097656 27.105469 6.363281 24.886719 10.71875 24.886719 C 47.125 24.882813 83.53125 24.882813 119.9375 24.886719 C 124.101563 24.886719 126.433594 27.101563 126.4375 31.117188 C 126.453125 45.496094 126.453125 59.875 126.4375 74.253906 C 126.433594 77.945313 124.058594 80.359375 120.351563 80.367188 Z M 130.535156 30.984375 C 130.53125 24.9375 126.347656 20.902344 120.113281 20.898438 C 110.730469 20.890625 19.464844 20.875 9.957031 20.902344 C 4.382813 20.914063 0.0234375 25.132813 0.015625 30.550781 C -0.0117188 45.234375 0.00390625 59.917969 0.00390625 74.601563 C 0.0078125 77.410156 1.136719 79.722656 3.113281 81.742188 C 3.632813 82.277344 4.039063 83.15625 4.050781 83.878906 C 4.125 90.101563 4.070313 96.328125 4.105469 102.550781 C 4.128906 106.835938 6.984375 110.578125 11.222656 111.683594 C 12.691406 112.066406 14.292969 112.089844 15.835938 112.09375 C 48.335938 112.113281 80.835938 112.105469 113.335938 112.105469 C 114.390625 112.105469 115.449219 112.140625 116.503906 112.101563 C 122.476563 111.863281 126.429688 107.886719 126.441406 102.085938 C 126.457031 96.042969 126.414063 90 126.484375 83.960938 C 126.496094 83.226563 126.871094 82.324219 127.390625 81.796875 C 129.472656 79.679688 130.558594 77.261719 130.550781 74.308594 C 130.523438 59.867188 130.546875 45.425781 130.535156 30.984375 "/>
</g>
</g>
</svg>
